<mxfile host="Electron" modified="2023-09-28T20:33:58.764Z" agent="Mozilla/5.0 (Macintosh; Intel Mac OS X 10_15_7) AppleWebKit/537.36 (KHTML, like Gecko) draw.io/22.0.0 Chrome/114.0.5735.289 Electron/25.8.3 Safari/537.36" etag="rXSaiS1Jh96kPacvzKBV" version="22.0.0" type="device">
  <diagram name="Page-1" id="t9t9E77nt0FWOEnlZXOu">
    <mxGraphModel dx="1570" dy="1084" grid="1" gridSize="10" guides="1" tooltips="1" connect="1" arrows="1" fold="1" page="1" pageScale="1" pageWidth="850" pageHeight="1100" math="0" shadow="0">
      <root>
        <mxCell id="0" />
        <mxCell id="1" parent="0" />
        <mxCell id="Iq7FPn3WMmRdyrXjcbdk-19" style="edgeStyle=orthogonalEdgeStyle;rounded=1;orthogonalLoop=1;jettySize=auto;html=1;strokeWidth=2;strokeColor=#990300;" parent="1" source="Iq7FPn3WMmRdyrXjcbdk-1" target="Iq7FPn3WMmRdyrXjcbdk-2" edge="1">
          <mxGeometry relative="1" as="geometry" />
        </mxCell>
        <mxCell id="Iq7FPn3WMmRdyrXjcbdk-1" value="User Data" style="shape=cylinder3;whiteSpace=wrap;html=1;boundedLbl=1;backgroundOutline=1;size=15;fillColor=#081c5a;" parent="1" vertex="1">
          <mxGeometry x="50" y="250" width="140" height="80" as="geometry" />
        </mxCell>
        <mxCell id="Iq7FPn3WMmRdyrXjcbdk-2" value="Image Processing" style="shape=step;perimeter=stepPerimeter;whiteSpace=wrap;html=1;fixedSize=1;fillColor=#081c5a;" parent="1" vertex="1">
          <mxGeometry x="270" y="250" width="190" height="80" as="geometry" />
        </mxCell>
        <mxCell id="Iq7FPn3WMmRdyrXjcbdk-20" style="edgeStyle=orthogonalEdgeStyle;rounded=1;orthogonalLoop=1;jettySize=auto;html=1;exitX=1;exitY=0.5;exitDx=0;exitDy=0;strokeWidth=2;strokeColor=#990300;" parent="1" source="Iq7FPn3WMmRdyrXjcbdk-5" target="Iq7FPn3WMmRdyrXjcbdk-7" edge="1">
          <mxGeometry relative="1" as="geometry" />
        </mxCell>
        <mxCell id="Iq7FPn3WMmRdyrXjcbdk-5" value="Visualization" style="shape=step;perimeter=stepPerimeter;whiteSpace=wrap;html=1;fixedSize=1;fillColor=#081c5a;" parent="1" vertex="1">
          <mxGeometry x="610" y="250" width="190" height="80" as="geometry" />
        </mxCell>
        <mxCell id="Iq7FPn3WMmRdyrXjcbdk-6" value="Harmonization &amp;amp; ML" style="shape=step;perimeter=stepPerimeter;whiteSpace=wrap;html=1;fixedSize=1;fillColor=#081c5a;" parent="1" vertex="1">
          <mxGeometry x="440" y="250" width="190" height="80" as="geometry" />
        </mxCell>
        <mxCell id="Iq7FPn3WMmRdyrXjcbdk-7" value="Plot" style="verticalLabelPosition=bottom;shadow=0;dashed=0;align=center;html=1;verticalAlign=top;strokeWidth=1;shape=mxgraph.mockup.graphics.plotChart;strokeColor=none;strokeColor2=#aaaaaa;strokeColor3=#666666;fillColor2=#99aaff,#0022ff,#008cff;fillStyle=solid;fillColor=#ffffff;" parent="1" vertex="1">
          <mxGeometry x="880" y="225" width="140" height="130" as="geometry" />
        </mxCell>
        <mxCell id="Iq7FPn3WMmRdyrXjcbdk-16" style="edgeStyle=orthogonalEdgeStyle;rounded=1;orthogonalLoop=1;jettySize=auto;html=1;entryX=0.5;entryY=1;entryDx=0;entryDy=0;strokeWidth=2;startArrow=classic;startFill=1;strokeColor=#990300;" parent="1" source="Iq7FPn3WMmRdyrXjcbdk-8" target="Iq7FPn3WMmRdyrXjcbdk-6" edge="1">
          <mxGeometry relative="1" as="geometry" />
        </mxCell>
        <mxCell id="Iq7FPn3WMmRdyrXjcbdk-17" style="edgeStyle=orthogonalEdgeStyle;rounded=1;orthogonalLoop=1;jettySize=auto;html=1;exitX=0.855;exitY=0;exitDx=0;exitDy=4.35;exitPerimeter=0;strokeWidth=2;strokeColor=#990300;" parent="1" source="Iq7FPn3WMmRdyrXjcbdk-8" target="Iq7FPn3WMmRdyrXjcbdk-5" edge="1">
          <mxGeometry relative="1" as="geometry" />
        </mxCell>
        <mxCell id="Iq7FPn3WMmRdyrXjcbdk-18" style="edgeStyle=orthogonalEdgeStyle;rounded=1;orthogonalLoop=1;jettySize=auto;html=1;exitX=0.145;exitY=0;exitDx=0;exitDy=4.35;exitPerimeter=0;entryX=0.5;entryY=1;entryDx=0;entryDy=0;strokeWidth=2;startArrow=classic;startFill=1;strokeColor=#990300;" parent="1" source="Iq7FPn3WMmRdyrXjcbdk-8" target="Iq7FPn3WMmRdyrXjcbdk-2" edge="1">
          <mxGeometry relative="1" as="geometry" />
        </mxCell>
        <mxCell id="Iq7FPn3WMmRdyrXjcbdk-8" value="Container registry" style="shape=cylinder3;whiteSpace=wrap;html=1;boundedLbl=1;backgroundOutline=1;size=15;fillColor=#081c5a;" parent="1" vertex="1">
          <mxGeometry x="415" y="390" width="240" height="100" as="geometry" />
        </mxCell>
        <mxCell id="Iq7FPn3WMmRdyrXjcbdk-9" value="&lt;span style=&quot;font-weight: normal;&quot;&gt;Model Hub&lt;/span&gt;" style="shape=cylinder3;whiteSpace=wrap;html=1;boundedLbl=1;backgroundOutline=1;size=15;fontStyle=1;fillColor=#081c5a;" parent="1" vertex="1">
          <mxGeometry x="320" y="550" width="180" height="80" as="geometry" />
        </mxCell>
        <mxCell id="Iq7FPn3WMmRdyrXjcbdk-10" value="Dataset collection&lt;br&gt;(managed by CBICA)" style="shape=cylinder3;whiteSpace=wrap;html=1;boundedLbl=1;backgroundOutline=1;size=15;fillColor=#081c5a;" parent="1" vertex="1">
          <mxGeometry x="570" y="550" width="180" height="80" as="geometry" />
        </mxCell>
        <mxCell id="Iq7FPn3WMmRdyrXjcbdk-14" style="edgeStyle=orthogonalEdgeStyle;rounded=1;orthogonalLoop=1;jettySize=auto;html=1;exitX=0.145;exitY=1;exitDx=0;exitDy=-4.35;exitPerimeter=0;entryX=0.5;entryY=0;entryDx=0;entryDy=0;entryPerimeter=0;startArrow=classic;startFill=1;strokeWidth=2;strokeColor=#990300;" parent="1" source="Iq7FPn3WMmRdyrXjcbdk-8" target="Iq7FPn3WMmRdyrXjcbdk-9" edge="1">
          <mxGeometry relative="1" as="geometry" />
        </mxCell>
        <mxCell id="Iq7FPn3WMmRdyrXjcbdk-15" style="edgeStyle=orthogonalEdgeStyle;rounded=1;orthogonalLoop=1;jettySize=auto;html=1;entryX=0.855;entryY=1;entryDx=0;entryDy=-4.35;entryPerimeter=0;strokeWidth=2;strokeColor=#990300;" parent="1" source="Iq7FPn3WMmRdyrXjcbdk-10" target="Iq7FPn3WMmRdyrXjcbdk-8" edge="1">
          <mxGeometry relative="1" as="geometry" />
        </mxCell>
      </root>
    </mxGraphModel>
  </diagram>
</mxfile>
